<?xml version="1.0" encoding="UTF-8" standalone="no"?>
<!-- Created with Inkscape (http://www.inkscape.org/) -->

<svg
   width="512"
   height="512"
   viewBox="0 0 512 512"
   version="1.1"
   id="svg1"
   inkscape:version="1.3 (0e150ed6c4, 2023-07-21)"
   sodipodi:docname="bs.svg"
   inkscape:export-filename="bs_logo.svg"
   inkscape:export-xdpi="96"
   inkscape:export-ydpi="96"
   xmlns:inkscape="http://www.inkscape.org/namespaces/inkscape"
   xmlns:sodipodi="http://sodipodi.sourceforge.net/DTD/sodipodi-0.dtd"
   xmlns="http://www.w3.org/2000/svg"
   xmlns:svg="http://www.w3.org/2000/svg">
  <sodipodi:namedview
     id="namedview1"
     pagecolor="#ffffff"
     bordercolor="#000000"
     borderopacity="0.25"
     inkscape:showpageshadow="2"
     inkscape:pageopacity="0.0"
     inkscape:pagecheckerboard="0"
     inkscape:deskcolor="#d1d1d1"
     inkscape:document-units="px"
     inkscape:zoom="1.1573349"
     inkscape:cx="332.22881"
     inkscape:cy="312.7876"
     inkscape:window-width="1920"
     inkscape:window-height="1044"
     inkscape:window-x="1920"
     inkscape:window-y="0"
     inkscape:window-maximized="1"
     inkscape:current-layer="layer1" />
  <defs
     id="defs1" />
  <g
     inkscape:groupmode="layer"
     id="layer1"
     inkscape:label="Layer 1"
     style="display:inline;opacity:1">
    <path
       d="m 284.4463,4.6362071 c -3.61727,0 -7.18805,0.058947 -10.71201,0.1786448 -3.52398,0.1197252 -6.99991,0.2986508 -10.43056,0.5381115 -3.43067,0.2394516 -6.8145,0.5384085 -10.15187,0.8975956 -3.33734,0.3591861 -6.62909,0.7781616 -9.87314,1.257073 -3.24405,0.4789133 -6.44093,1.0179181 -9.5917,1.6165558 -3.15073,0.5986479 -6.25555,1.2576602 -9.31299,1.9760322 -3.05746,0.718374 -6.0674,1.497418 -9.03155,2.335515 -2.96415,0.838099 -5.882,1.734959 -8.75283,2.692793 -2.81344,0.914284 -5.5559,1.883579 -8.22578,2.906714 -2.6699,1.023134 -5.26624,2.101122 -7.79257,3.233107 -2.52634,1.131975 -4.98207,2.318679 -7.36485,3.559505 -2.38281,1.240825 -4.69514,2.536245 -6.9344,3.885911 -2.23927,1.349663 -4.40544,2.753789 -6.50117,4.212307 -2.09572,1.458504 -4.11851,2.971344 -6.07069,4.538701 -1.95216,1.56736 -3.83434,3.188905 -5.64296,4.865101 -1.80864,1.676197 -3.54469,3.406457 -5.20977,5.191502 -1.60767,1.741508 -3.11596,3.529492 -4.52267,5.363521 -1.4067,1.83402 -2.7126,3.714856 -3.91837,5.641399 -1.20574,1.926543 -2.30924,3.898014 -3.31405,5.91708 -1.0048,2.019055 -1.91141,4.08558 -2.71525,6.197166 -0.80384,2.111554 -1.50531,4.268737 -2.10817,6.472824 -0.60287,2.204092 -1.1075,4.454104 -1.50943,6.750711 -0.4019,2.296602 -0.70135,4.639464 -0.90231,7.028576 -0.20096,2.389156 -0.30076,4.824855 -0.30076,7.306506 0,2.394571 0.0717,4.749891 0.21521,7.068271 0.14355,2.31839 0.35863,4.59898 0.64572,6.84115 0.28707,2.24218 0.64553,4.44796 1.07617,6.61399 0.4306,2.16599 0.93247,4.29259 1.50663,6.3824 0.57416,2.08981 1.21938,4.14164 1.93711,6.15526 0.71771,2.01362 1.50906,3.98845 2.37033,5.9259 0.86125,1.93743 1.79324,3.8375 2.79804,5.69875 1.0048,1.86123 2.08015,3.68433 3.22849,5.46936 1.14834,1.7415 2.37373,3.45591 3.67277,5.143 1.29906,1.68708 2.67279,3.3471 4.12256,4.97978 1.44978,1.63265 2.9746,3.23834 4.57509,4.81656 1.6005,1.57826 3.27644,3.12959 5.02764,4.65339 1.75123,1.52383 3.57825,3.0208 5.48018,4.49019 1.90194,1.46939 3.88007,2.90982 5.93272,4.32476 2.05267,1.41499 4.17914,2.80325 6.38251,4.16382 2.20337,1.36056 4.4837,2.69444 6.8378,4.00057 2.3541,1.30614 4.78281,2.60155 7.28761,3.88592 2.50481,1.28435 5.08461,2.55716 7.74013,3.81976 2.65554,1.26257 5.38643,2.51495 8.19267,3.75577 2.80625,1.24084 5.68826,2.47057 8.64523,3.68962 5.91395,2.4381 12.12851,4.83195 18.64532,7.18296 6.51681,2.35105 13.33578,4.6588 20.45547,6.92275 6.77518,2.08981 13.17671,4.15751 19.20546,6.20378 6.02877,2.04627 11.68524,4.07093 16.9676,6.07367 5.28234,2.00271 10.19103,3.98433 14.72696,5.94352 4.53592,1.9592 8.69956,3.89557 12.48907,5.81122 1.95217,0.95784 3.83158,1.92712 5.64023,2.90671 1.80863,0.97961 3.54465,1.97152 5.20976,2.97288 1.66509,1.00138 3.26048,2.0115 4.78204,3.03462 1.52155,1.02313 2.97082,2.05812 4.34882,3.10299 1.37803,1.04489 2.68391,2.10028 3.91837,3.16696 1.23445,1.06666 2.39697,2.14467 3.48788,3.23309 1.09094,1.08845 2.11004,2.18687 3.05743,3.29708 0.94737,1.11021 1.82309,2.23124 2.62694,3.36323 0.86127,1.08844 1.66917,2.2117 2.42277,3.36542 0.7536,1.15376 1.45121,2.33827 2.09713,3.55731 0.64596,1.21906 1.23879,2.47145 1.77706,3.75578 0.53829,1.28437 1.0236,2.60242 1.45422,3.95207 0.43063,1.34968 0.80839,2.73119 1.13134,4.14615 0.32299,1.41497 0.59043,2.86215 0.80576,4.34243 0.21531,1.48026 0.378,2.99312 0.48565,4.5387 0.10765,1.54558 0.16004,3.12411 0.16004,4.73497 0,2.65582 -0.1356,5.23531 -0.40839,7.73875 -0.27272,2.50342 -0.68246,4.93117 -1.22792,7.2822 -0.54547,2.35105 -1.22653,4.62484 -2.04471,6.8235 -0.81819,2.19867 -1.77335,4.32291 -2.86429,6.36917 -1.09091,2.0463 -2.31738,4.01439 -3.68104,5.90827 -1.36366,1.8939 -2.86421,3.71243 -4.5006,5.45395 -1.63636,1.74149 -3.40825,3.40608 -5.31737,4.99522 -1.90909,1.58911 -3.95506,3.10197 -6.13691,4.53871 -2.18183,1.3932 -4.46715,2.69991 -6.85713,3.91897 -2.38997,1.21906 -4.88539,2.35141 -7.4835,3.3963 -2.59812,1.04491 -5.30088,2.0029 -8.10717,2.87365 -2.80623,0.87076 -5.71635,1.65435 -8.73072,2.35095 -3.0144,0.69661 -6.13188,1.30581 -9.3544,1.82828 -3.22254,0.52244 -6.55013,0.95729 -9.98077,1.30559 -3.43067,0.3483 -6.96562,0.61095 -10.60442,0.78512 -3.63876,0.17415 -7.38107,0.26024 -11.22801,0.26024 -2.69862,0 -5.33078,-0.059 -7.90018,-0.17865 -2.5694,-0.11974 -5.07641,-0.30087 -7.51662,-0.54033 -2.44021,-0.23945 -4.81376,-0.53841 -7.12478,-0.89759 -2.31105,-0.35918 -4.55942,-0.77814 -6.74123,-1.25707 -2.18186,-0.47891 -4.29951,-1.01792 -6.35217,-1.61654 -2.05265,-0.59866 -4.0396,-1.25548 -5.96306,-1.97383 -1.92346,-0.71838 -3.78249,-1.49743 -5.57677,-2.33554 -1.79429,-0.83808 -3.52258,-1.73714 -5.1877,-2.695 -1.66508,-1.00134 -3.27703,-2.03747 -4.83446,-3.10956 -1.55745,-1.07214 -3.06186,-2.17849 -4.51164,-3.32137 -1.44977,-1.14284 -2.84665,-2.32161 -4.18876,-3.53523 -1.34213,-1.21362 -2.62872,-2.46261 -3.86319,-3.74696 -1.23445,-1.28437 -2.41626,-2.60358 -3.54307,-3.9587 -1.1268,-1.35511 -2.1983,-2.74673 -3.21746,-4.1726 -1.01916,-1.42585 -1.9859,-2.88772 -2.89738,-4.38433 -0.91151,-1.49661 -1.76793,-3.0287 -2.57177,-4.59604 -1.60768,-3.22179 -3.04426,-6.4853 -4.30745,-9.79416 -1.26315,-3.30886 -2.35397,-6.66288 -3.27263,-10.05881 -0.91868,-3.39593 -1.6637,-6.83384 -2.2379,-10.31685 -0.57417,-3.48299 -0.97619,-7.00919 -1.20585,-10.57928 -2.64116,0 -5.18126,0.0974 -7.62149,0.29332 -2.4402,0.19594 -4.78067,0.49032 -7.01993,0.88217 -2.23923,0.39183 -4.37731,0.88102 -6.41561,1.46878 -2.03828,0.58778 -3.97672,1.27396 -5.81407,2.05765 -1.83733,0.69658 -3.57613,1.46889 -5.21253,2.31787 -1.63639,0.84897 -3.17002,1.77302 -4.60543,2.77438 -1.43542,1.00137 -2.7722,2.07936 -4.00666,3.2331 -1.23447,1.15377 -2.36884,2.3835 -3.40234,3.68963 -0.91869,1.30613 -1.71998,2.66723 -2.40896,4.08218 -0.689,1.41498 -1.26531,2.88478 -1.72462,4.40859 -0.45936,1.52382 -0.80238,3.10234 -1.03204,4.73498 -0.22968,1.63267 -0.34493,3.31989 -0.34493,5.06139 0,2.69934 0.1715,5.34233 0.516,7.93281 0.3445,2.5905 0.86181,5.12698 1.5508,7.6086 0.68899,2.48166 1.54928,4.90943 2.5828,7.28223 1.03349,2.3728 2.23959,4.69186 3.61759,6.95581 0.74642,1.13199 1.53777,2.24511 2.37032,3.33896 0.83253,1.09389 1.70552,2.16852 2.6242,3.2243 0.91867,1.05579 1.88155,2.09192 2.88633,3.10963 1.0048,1.01767 2.05205,2.01752 3.14297,2.99711 2.18185,1.95921 4.53774,3.8412 7.06409,5.64802 2.52632,1.80681 5.22525,3.53709 8.09608,5.19151 1.43542,0.82719 2.91282,1.63004 4.43439,2.40828 1.52153,0.77824 3.08606,1.53129 4.69374,2.26054 3.21534,1.4585 6.60305,2.81959 10.16289,4.08219 3.55986,1.26257 7.29058,2.42665 11.1949,3.49333 3.90436,1.06668 7.98084,2.03596 12.22972,2.90672 4.36367,0.87075 8.88575,1.63393 13.56523,2.28698 4.67947,0.6531 9.51644,1.19663 14.5117,1.63199 4.9953,0.43541 10.14989,0.7615 15.46096,0.97922 5.31104,0.21767 10.78057,0.32639 16.40745,0.32639 4.30627,0 8.53881,-0.0656 12.70155,-0.19626 4.16272,-0.13063 8.25465,-0.32543 12.27383,-0.58665 4.01919,-0.26124 7.96773,-0.58736 11.84336,-0.97921 3.87564,-0.39182 7.67805,-0.84929 11.41013,-1.37175 3.73212,-0.52245 7.39391,-1.11124 10.98245,-1.76433 3.58857,-0.65305 7.10422,-1.37099 10.54921,-2.15466 3.44502,-0.78367 6.81729,-1.63293 10.11877,-2.54723 3.30145,-0.91431 6.53308,-1.89268 9.69102,-2.93758 3.21531,-1.04491 6.3367,-2.14554 9.36542,-3.29928 3.02874,-1.15375 5.96314,-2.36087 8.80526,-3.62345 2.84213,-1.2626 5.59236,-2.58065 8.24789,-3.95207 2.65551,-1.37144 5.21878,-2.79598 7.68768,-4.27626 2.46894,-1.48029 4.84246,-3.01576 7.12481,-4.60489 2.28231,-1.58909 4.47165,-3.2333 6.56735,-4.93124 2.09574,-1.69797 4.09816,-3.45085 6.00725,-5.25767 1.90911,-1.80682 3.72456,-3.6662 5.44707,-5.58186 1.72251,-1.95918 3.33831,-3.97137 4.84551,-6.03395 1.50722,-2.0626 2.90519,-4.17673 4.19708,-6.34273 1.29187,-2.16598 2.47754,-4.38428 3.5541,-6.65368 1.07656,-2.26939 2.04441,-4.58962 2.90565,-6.96241 0.86124,-2.37281 1.61679,-4.7972 2.26271,-7.27342 0.64595,-2.47618 1.18363,-5.00475 1.61426,-7.58434 0.43063,-2.57963 0.75325,-5.21011 0.96856,-7.89311 0.21532,-2.68299 0.32285,-5.41767 0.32285,-8.20408 0,-2.26394 -0.0794,-4.48679 -0.23731,-6.66911 -0.1579,-2.18234 -0.39339,-4.32363 -0.70916,-6.42431 -0.31581,-2.1007 -0.71012,-4.16267 -1.18381,-6.18174 -0.47368,-2.01906 -1.0268,-3.99729 -1.65838,-5.93469 -0.63161,-1.93744 -1.34356,-3.83194 -2.13304,-5.68774 -0.78948,-1.8558 -1.65749,-3.67098 -2.60488,-5.44511 -0.94738,-1.77417 -1.97421,-3.50781 -3.07949,-5.20032 -1.10528,-1.69254 -2.28818,-3.34465 -3.55135,-4.95553 -1.26317,-1.61091 -2.59995,-3.19735 -4.00666,-4.75925 -1.4067,-1.56191 -2.8841,-3.09854 -4.43437,-4.61147 -1.55025,-1.51293 -3.17104,-3.00198 -4.86484,-4.46592 -1.69379,-1.46396 -3.46072,-2.90319 -5.29804,-4.31818 -1.83736,-1.41496 -3.74491,-2.80662 -5.72578,-4.1726 -1.98088,-1.36599 -4.03458,-2.70783 -6.15899,-4.02486 -2.12442,-1.31701 -4.3215,-2.60904 -6.58947,-3.87708 -2.26795,-1.26802 -4.6084,-2.51027 -7.01992,-3.72931 -2.35409,-1.26259 -4.77121,-2.51159 -7.25449,-3.74697 -2.48329,-1.23539 -5.03109,-2.4572 -7.64355,-3.66539 -5.22494,-2.41632 -10.70988,-4.77843 -16.4516,-7.08592 -5.74167,-2.30749 -11.74115,-4.56088 -17.9996,-6.75952 -6.25842,-2.19867 -12.7752,-4.34334 -19.55039,-6.43316 -6.66034,-2.0898 -12.97473,-4.1462 -18.94607,-6.17069 -5.97136,-2.0245 -11.5997,-4.01743 -16.88206,-5.97662 -5.28236,-1.95921 -10.21914,-3.88424 -14.8125,-5.77812 -4.59335,-1.89391 -8.84135,-3.7555 -12.74568,-5.58407 -1.95218,-0.95785 -3.83822,-1.9305 -5.65404,-2.91553 -1.8158,-0.98505 -3.56341,-1.98267 -5.24288,-2.99494 -1.67943,-1.01226 -3.28864,-2.03928 -4.83171,-3.07872 -1.54307,-1.03947 -3.01938,-2.09146 -4.4261,-3.15812 -1.40669,-1.06668 -2.74457,-2.14805 -4.01493,-3.24195 -1.27036,-1.09386 -2.47256,-2.20024 -3.60652,-3.32133 -1.13398,-1.1211 -2.20054,-2.25682 -3.19816,-3.40514 -0.99762,-1.14827 -1.92576,-2.309 -2.78702,-3.48452 -0.80381,-1.21905 -1.55934,-2.4714 -2.2627,-3.75577 -0.70334,-1.28436 -1.3563,-2.6024 -1.95918,-3.95209 -0.60288,-1.34964 -1.15601,-2.73116 -1.65841,-4.14613 -0.5024,-1.41499 -0.95294,-2.86212 -1.35484,-4.34242 -0.40194,-1.48029 -0.75542,-2.99312 -1.05687,-4.53871 -0.30144,-1.54559 -0.55235,-3.12407 -0.75331,-4.73498 -0.20096,-1.61088 -0.34932,-3.255057 -0.44979,-4.931255 -0.10044,-1.67622 -0.15177,-3.383847 -0.15177,-5.125349 0,-2.263942 0.11525,-4.470919 0.34493,-6.6206 0.22966,-2.149659 0.57268,-4.243363 1.03201,-6.278746 0.45933,-2.035393 1.03563,-4.013629 1.72464,-5.934726 0.68899,-1.921089 1.49029,-3.783856 2.40897,-5.590677 0.91866,-1.806798 1.95321,-3.556307 3.10155,-5.248831 1.14833,-1.692534 2.41066,-3.32877 3.78867,-4.907013 1.378,-1.578238 2.87083,-3.099007 4.47851,-4.562956 1.60767,-1.463959 3.33102,-2.871459 5.16838,-4.221121 1.83733,-1.349677 3.76804,-2.614532 5.792,-3.79549 2.02392,-1.180956 4.14159,-2.278197 6.35214,-3.290457 2.21055,-1.012252 4.51518,-1.939666 6.91231,-2.78321 2.39716,-0.843539 4.88596,-1.603342 7.46973,-2.278175 2.58375,-0.674831 5.26227,-1.264806 8.03262,-1.770932 2.77035,-0.506123 5.63306,-0.928477 8.59004,-1.265892 2.95695,-0.337417 6.00661,-0.589942 9.15017,-0.758651 3.14359,-0.168718 6.38018,-0.253622 9.71036,-0.253622 2.41153,0 4.7597,0.05318 7.04198,0.156582 2.28236,0.103428 4.49982,0.258532 6.65296,0.465338 2.15313,0.206796 4.24266,0.463884 6.26661,0.774087 2.02394,0.310215 3.98277,0.67366 5.87753,1.087258 1.89477,0.413613 3.72565,0.879008 5.49122,1.396019 1.76557,0.517009 3.46575,1.084356 5.10215,1.704775 1.63638,0.620406 3.20863,1.294122 4.71583,2.017938 1.50718,0.723815 2.94875,1.497272 4.32675,2.324485 1.43542,0.827214 2.81684,1.683243 4.14462,2.564882 1.32776,0.881627 2.60167,1.789802 3.82178,2.725866 1.22012,0.936053 2.38647,1.898584 3.49892,2.889062 1.11246,0.990477 2.17128,2.00957 3.17608,3.054475 1.00479,1.044902 1.95608,2.116139 2.85322,3.215468 0.89714,1.09932 1.7409,2.227117 2.53038,3.380871 0.78949,1.153745 1.52571,2.333696 2.20754,3.541867 0.68182,1.208171 1.30774,2.444661 1.88192,3.70726 1.26315,2.525188 2.36942,5.070775 3.31679,7.639482 0.9474,2.568727 1.73599,5.159559 2.36757,7.771825 0.63159,2.612255 1.10532,5.246127 1.42109,7.90193 0.31581,2.655801 0.47462,5.332711 0.47462,8.032049 2.06701,0 4.08099,-0.04298 6.04034,-0.130127 1.95935,-0.08698 3.86305,-0.218415 5.71473,-0.392575 1.8517,-0.17414 3.6506,-0.391561 5.39467,-0.652771 1.74402,-0.261228 3.43538,-0.564741 5.07175,-0.913042 1.63641,-0.348281 3.21747,-0.740103 4.74619,-1.175473 1.52871,-0.43539 3.00504,-0.915464 4.42609,-1.437914 1.42106,-0.522469 2.78707,-1.088627 4.10046,-1.698148 1.31343,-0.60953 2.57189,-1.261799 3.77766,-1.958401 1.26316,-0.740149 2.44882,-1.52035 3.5541,-2.342136 1.10528,-0.821759 2.13211,-1.68573 3.07948,-2.589125 0.94739,-0.903402 1.81542,-1.846698 2.60489,-2.831731 0.78947,-0.985033 1.49867,-2.012051 2.13027,-3.078736 0.63158,-1.06667 1.18471,-2.173013 1.6584,-3.321316 0.47369,-1.14831 0.868,-2.338391 1.18378,-3.56833 0.31579,-1.229938 0.55403,-2.499357 0.71193,-3.810926 0.1579,-1.311577 0.23731,-2.664725 0.23731,-4.057922 0,-1.262591 -0.0794,-2.514969 -0.23731,-3.755795 -0.1579,-1.240814 -0.39614,-2.470573 -0.71193,-3.689616 -0.31578,-1.219055 -0.71009,-2.426186 -1.18378,-3.623471 -0.47369,-1.197285 -1.02682,-2.383989 -1.6584,-3.559505 -0.6316,-1.175511 -1.3408,-2.339599 -2.13027,-3.493345 -0.78947,-1.153755 -1.6575,-2.297415 -2.60489,-3.429389 -0.94737,-1.131985 -1.9742,-2.253021 -3.07948,-3.363237 -1.10528,-1.110203 -2.29094,-2.208616 -3.5541,-3.297063 -1.26319,-1.131972 -2.5972,-2.237153 -4.00391,-3.314712 -1.40671,-1.077549 -2.8841,-2.128371 -4.43436,-3.151505 -1.55027,-1.023134 -3.17381,-2.019597 -4.8676,-2.988316 -1.69382,-0.968711 -3.45797,-1.908612 -5.29531,-2.822907 -1.83734,-0.914283 -3.74762,-1.80204 -5.72852,-2.661909 -1.98087,-0.859867 -4.03183,-1.69327 -6.15623,-2.498713 -2.12444,-0.805443 -4.32151,-1.582285 -6.58947,-2.3333 -2.26796,-0.75103 -4.60841,-1.475714 -7.01994,-2.172317 -2.35408,-0.696604 -4.77504,-1.348864 -7.26551,-1.958398 -2.49046,-0.609521 -5.04984,-1.1756944 -7.67667,-1.6981476 -2.62681,-0.5224513 -5.32187,-1.0025481 -8.08505,-1.4379196 -2.76317,-0.4353828 -5.5939,-0.8271782 -8.49346,-1.1754813 -2.89956,-0.3483012 -5.86869,-0.6518084 -8.9046,-0.913029 -3.03592,-0.2612308 -6.14072,-0.480854 -9.31301,-0.6550051 -3.17226,-0.174151 -6.41274,-0.3032811 -9.72139,-0.3903506 -3.30865,-0.087051 -6.68475,-0.1301247 -10.12977,-0.1301247 z"
       style="font-size:475.021px;font-family:'TeX Gyre Bonum';-inkscape-font-specification:'TeX Gyre Bonum';fill:#ffffff;stroke:#3b2eec;stroke-width:0.312488;stroke-linecap:round;stroke-linejoin:round;fill-opacity:1"
       id="path25" />
    <path
       d="M 85.171818,86.979942 7.951078,106.48786 v 15.60593 c 0,0 1.7952319,-0.27932 4.788243,-0.55799 1.496505,-0.13934 3.294163,-0.27888 5.314444,-0.38339 2.020283,-0.10449 4.264777,-0.17462 6.659186,-0.17462 2.84336,0 5.386032,0.07 7.661188,0.24087 2.275155,0.1709 4.282575,0.4441 6.050322,0.84904 0.883873,0.20248 1.707352,0.43773 2.475773,0.71055 0.768421,0.27282 1.480533,0.58228 2.141101,0.93334 0.660566,0.35106 1.270307,0.74304 1.830619,1.18024 0.560314,0.43718 1.072645,0.91997 1.540302,1.4512 0.467659,0.53121 0.889559,1.11111 1.272162,1.74424 0.382601,0.63314 0.725081,1.32045 1.030227,2.0634 0.305148,0.74295 0.573166,1.54197 0.808457,2.40261 0.235292,0.86065 0.437846,1.78168 0.610879,2.76791 0.346068,1.97249 0.575096,4.20391 0.717732,6.72612 0.142635,2.5222 0.199595,5.33528 0.199595,8.47035 v 313.22862 c 1.795806,0.90569 3.908939,1.93399 6.332576,3.03889 2.423637,1.10489 5.158339,2.28771 8.193438,3.50255 3.035101,1.21485 6.371688,2.46173 10.001882,3.69726 3.630196,1.23551 7.553018,2.45804 11.761941,3.62498 4.208921,1.16695 8.702325,2.27869 13.473615,3.28778 2.38563,0.50456 4.84165,0.98278 7.36482,1.43114 2.52316,0.44835 5.11343,0.86546 7.77207,1.24646 2.65864,0.38101 5.38525,0.72721 8.17731,1.02969 2.79206,0.30249 5.65103,0.56197 8.57448,0.77478 2.92345,0.21282 5.91081,0.37777 8.96359,0.48975 3.05279,0.11199 6.17061,0.17062 9.35068,0.17062 2.60018,0 5.17715,-0.0504 7.73176,-0.15255 2.55459,-0.10215 5.08591,-0.2556 7.59263,-0.45965 2.50672,-0.20404 4.98893,-0.45914 7.44547,-0.76474 2.45653,-0.3056 4.88818,-0.66097 7.29223,-1.06783 2.40406,-0.40684 4.7817,-0.86512 7.13096,-1.37292 2.34927,-0.5078 4.66943,-1.06555 6.96161,-1.67399 2.29217,-0.60845 4.55541,-1.26832 6.78821,-1.97709 2.2328,-0.70877 4.43567,-1.46736 6.60677,-2.27615 2.1711,-0.80881 4.31014,-1.66671 6.41725,-2.57523 2.10711,-0.90854 4.18289,-1.86637 6.2237,-2.87431 2.04082,-1.00795 4.04786,-2.06632 6.02008,-3.17337 1.97223,-1.10706 3.90909,-2.26257 5.81041,-3.46844 1.90132,-1.20585 3.76655,-2.46113 5.59468,-3.76548 1.82812,-1.30437 3.6203,-2.65802 5.37291,-4.06056 1.75262,-1.40255 3.46625,-2.85518 5.14107,-4.35561 1.67482,-1.50044 3.31045,-3.04864 4.90517,-4.64666 1.59471,-1.59801 3.14892,-3.24642 4.66124,-4.9417 1.5123,-1.6953 2.9816,-3.4385 4.4092,-5.23076 1.4276,-1.79225 2.81259,-3.63286 4.15318,-5.52178 1.34058,-1.88892 2.63778,-3.82557 3.88906,-5.81083 1.25127,-1.98527 2.45722,-4.01854 3.61688,-6.09986 1.15967,-2.08132 2.27292,-4.21183 3.33866,-6.3889 1.06576,-2.17706 2.08286,-4.40142 3.05238,-6.67393 0.96954,-2.27249 1.89106,-4.59331 2.76206,-6.96093 0.87102,-2.36765 1.69147,-4.78152 2.46167,-7.24397 0.77019,-2.46245 1.49016,-4.97201 2.15723,-7.52898 0.66706,-2.55698 1.28308,-5.16082 1.84473,-7.81201 0.56165,-2.65117 1.06824,-5.34991 1.52216,-8.09501 0.45392,-2.74509 0.85366,-5.53731 1.19756,-8.37602 0.3439,-2.83869 0.63335,-5.72503 0.86491,-8.65703 0.23157,-2.93197 0.40523,-5.90904 0.52217,-8.93401 0.11693,-3.02497 0.17741,-6.09737 0.17741,-9.21502 0,-4.52844 -0.15916,-8.97416 -0.47176,-13.32978 -0.31261,-4.35562 -0.77875,-8.62172 -1.39313,-12.78984 -0.61438,-4.16812 -1.37687,-8.23781 -2.28223,-12.20374 -0.90535,-3.96592 -1.95355,-7.82646 -3.13906,-11.57548 -0.59276,-1.87452 -1.22026,-3.72233 -1.88103,-5.53986 -0.66077,-1.81753 -1.3552,-3.60651 -2.08264,-5.36523 -0.72742,-1.75872 -1.48747,-3.48652 -2.28021,-5.18458 -0.79273,-1.69806 -1.61907,-3.36636 -2.47577,-5.00193 -0.85669,-1.63557 -1.74398,-3.23799 -2.66328,-4.80924 -0.91928,-1.57123 -1.87021,-3.10945 -2.85077,-4.61453 -0.98053,-1.50509 -1.99176,-2.97675 -3.03221,-4.41382 -1.04044,-1.43708 -2.11062,-2.83984 -3.20963,-4.20708 -1.09899,-1.36724 -2.22683,-2.70076 -3.38302,-3.99632 -1.15618,-1.29557 -2.34033,-2.55349 -3.55237,-3.77553 -1.21204,-1.22205 -2.45117,-2.40803 -3.71769,-3.55475 -1.26653,-1.1467 -2.55931,-2.25439 -3.87898,-3.3239 -1.31968,-1.06953 -2.66679,-2.10059 -4.03826,-3.09109 -1.37146,-0.99049 -2.76756,-1.94057 -4.18946,-2.85021 -1.42189,-0.90963 -2.86968,-1.7784 -4.34067,-2.60534 -1.47098,-0.82694 -2.96509,-1.61203 -4.48381,-2.35443 -1.51871,-0.74241 -3.06185,-1.4415 -4.62695,-2.09753 -1.5651,-0.65603 -3.15392,-1.26875 -4.76404,-1.83658 -1.61014,-0.56782 -3.24129,-1.09184 -4.89511,-1.56962 -1.6538,-0.47778 -3.33,-0.90875 -5.02614,-1.29464 -1.69613,-0.3859 -3.41201,-0.72546 -5.14911,-1.01765 -1.73712,-0.29218 -3.49538,-0.53801 -5.27212,-0.73464 -1.77674,-0.19661 -3.57201,-0.34436 -5.38702,-0.44359 -1.81501,-0.0993 -3.65002,-0.15053 -5.50194,-0.15053 -2.50665,0 -4.97701,0.0937 -7.4132,0.27498 -2.43622,0.18125 -4.83837,0.45036 -7.20354,0.80087 -2.36519,0.35052 -4.69424,0.78281 -6.98782,1.29063 -2.29356,0.50781 -4.5507,1.0911 -6.77208,1.74425 -2.22137,0.65315 -4.40576,1.37727 -6.55435,2.16376 -2.1486,0.78648 -4.26137,1.63525 -6.33661,2.54311 -2.07523,0.90787 -4.11355,1.87309 -6.11483,2.89037 -2.00129,1.01725 -3.96632,2.08677 -5.89307,3.20146 -1.92675,1.1147 -3.81563,2.27632 -5.66726,3.47646 -1.85164,1.20014 -3.66553,2.43969 -5.44147,3.71331 -1.77593,1.27363 -3.51399,2.58091 -5.21363,3.91604 -1.69964,1.33512 -3.36103,2.69798 -4.98381,4.08263 -3.24554,2.76931 -6.33548,5.62495 -9.27002,8.52053 -2.93456,2.89559 -5.71367,5.83133 -8.33257,8.75739 h -1.79633 V 86.979942 Z M 168.37635,248.05324 c 1.7771,0 3.51353,0.0499 5.20961,0.14651 1.69608,0.0965 3.35298,0.23932 4.96969,0.42954 1.61671,0.19024 3.19281,0.42748 4.73178,0.70855 1.53899,0.28105 3.04109,0.60646 4.50399,0.97549 1.46288,0.36903 2.88769,0.7823 4.27614,1.23643 1.38845,0.45414 2.74074,0.94893 4.0564,1.48533 1.31565,0.53638 2.59417,1.11441 3.83866,1.73021 1.2445,0.61578 2.45399,1.27069 3.62899,1.96302 1.17498,0.69234 2.31621,1.42184 3.42333,2.18785 1.10712,0.766 2.18084,1.56778 3.22174,2.40461 1.0409,0.83683 2.04782,1.70857 3.02414,2.61337 0.97633,0.9048 1.92125,1.84217 2.83465,2.81207 0.91339,0.96991 1.79503,1.97261 2.64714,3.00478 0.8521,1.03217 1.67525,2.09385 2.46771,3.18542 1.58492,2.18312 3.05099,4.48312 4.4072,6.88668 1.3562,2.40355 2.60325,4.91179 3.7439,7.51292 1.14065,2.60113 2.17664,5.29509 3.11488,8.07092 0.93824,2.77585 1.77719,5.63299 2.52617,8.56069 0.74899,2.9277 1.40694,5.9255 1.97981,8.98219 0.57289,3.0567 1.06184,6.17263 1.47176,9.33547 0.40993,3.16282 0.74187,6.37236 1.00201,9.61846 0.26013,3.2461 0.44706,6.52872 0.57055,9.83524 0.12349,3.30654 0.18347,6.63771 0.18347,9.98179 0,3.86659 -0.0843,7.68535 -0.25605,11.44702 -0.17172,3.76168 -0.43208,7.46527 -0.78224,11.10379 -0.35016,3.63854 -0.79128,7.21123 -1.3266,10.70839 -0.53532,3.49715 -1.16389,6.91922 -1.8911,10.25676 -0.72721,3.33754 -1.55198,6.59124 -2.47779,9.75094 -0.92583,3.15971 -1.95349,6.22531 -3.08464,9.18894 -1.13115,2.96362 -2.36643,5.82542 -3.70962,8.57472 -1.34322,2.74932 -2.79483,5.38557 -4.35681,7.90234 -0.78098,1.25837 -1.58843,2.48636 -2.42537,3.6832 -0.83695,1.19682 -1.703,2.36353 -2.59673,3.49651 -0.89374,1.13301 -1.81472,2.23296 -2.7661,3.29984 -0.95137,1.06687 -1.93366,2.10062 -2.9435,3.09911 -1.00985,0.99849 -2.04774,1.96254 -3.1169,2.89036 -1.06917,0.92781 -2.16902,1.81871 -3.29834,2.67358 -1.12933,0.85486 -2.28947,1.67316 -3.4798,2.45279 -1.19031,0.77963 -2.4111,1.52185 -3.66325,2.22397 -1.25216,0.70212 -2.53391,1.36478 -3.84874,1.98711 -1.31483,0.62236 -2.66192,1.20399 -4.04026,1.74426 -1.37836,0.54028 -2.78909,1.03944 -4.2318,1.49537 -1.44271,0.45592 -2.91744,0.86913 -4.42535,1.23843 -1.50791,0.3693 -3.04898,0.69309 -4.62293,0.97349 -1.57395,0.2804 -3.18169,0.51732 -4.82251,0.70653 -1.64082,0.18921 -3.31357,0.33179 -5.02211,0.42754 -1.70855,0.0958 -3.45267,0.14451 -5.22977,0.14451 -1.98288,0 -3.91117,-0.0534 -5.78824,-0.15455 -1.87705,-0.10112 -3.70297,-0.2502 -5.47774,-0.4456 -1.77476,-0.1954 -3.49936,-0.43768 -5.17534,-0.72058 -1.67596,-0.28289 -3.30231,-0.60589 -4.883,-0.96947 -1.58068,-0.36358 -3.11586,-0.76685 -4.60477,-1.20432 -1.4889,-0.43747 -2.93197,-0.91052 -4.3326,-1.41507 -1.40063,-0.50455 -2.75867,-1.04094 -4.07455,-1.60576 -1.31586,-0.56483 -2.58992,-1.15807 -3.82453,-1.77637 -2.46925,-1.23661 -4.77822,-2.57258 -6.94347,-3.98227 -2.16525,-1.40969 -4.18719,-2.8935 -6.07653,-4.42185 -1.88933,-1.52834 -3.64676,-3.10225 -5.28823,-4.69482 -1.64148,-1.59257 -3.16696,-3.20285 -4.58864,-4.80523 V 282.05108 c 1.34685,-1.67204 2.93691,-3.45697 4.7479,-5.301 1.81102,-1.84402 3.8438,-3.7471 6.07453,-5.65427 2.23073,-1.90715 4.66,-3.8189 7.26602,-5.68035 2.60603,-1.86145 5.38962,-3.67242 8.32651,-5.37929 1.46844,-0.85343 2.97525,-1.68049 4.51809,-2.47486 1.54282,-0.79438 3.12011,-1.55645 4.73179,-2.27817 1.61167,-0.72172 3.25643,-1.40185 4.93138,-2.0373 1.67495,-0.63545 3.38016,-1.22473 5.11283,-1.7603 1.73267,-0.53559 3.49331,-1.01908 5.27816,-1.44117 1.78485,-0.4221 3.59386,-0.78287 5.42534,-1.07786 1.83145,-0.29501 3.68585,-0.52413 5.55838,-0.67844 1.87253,-0.1543 3.76326,-0.23483 5.6713,-0.23483 z"
       style="font-size:560.804px;font-family:STIX;-inkscape-font-specification:STIX;display:inline;fill:#6d34f3;stroke:#3b2eec;stroke-width:0.300749;stroke-linecap:round;stroke-linejoin:round;fill-opacity:1"
       id="path26" />
  </g>
</svg>
